<mxfile host="65bd71144e">
    <diagram id="qCnaVXlrUtLdoBFSRlJ8" name="Page-1">
        <mxGraphModel dx="427" dy="759" grid="1" gridSize="10" guides="1" tooltips="1" connect="1" arrows="1" fold="1" page="1" pageScale="1" pageWidth="850" pageHeight="1100" math="0" shadow="0">
            <root>
                <mxCell id="0"/>
                <mxCell id="1" parent="0"/>
                <mxCell id="99" value="APPLICATION" style="shape=hexagon;perimeter=hexagonPerimeter2;whiteSpace=wrap;html=1;fixedSize=1;strokeWidth=2;fontStyle=1;fontSize=14;rounded=0;size=50;" parent="1" vertex="1">
                    <mxGeometry x="40" y="80" width="200" height="160" as="geometry"/>
                </mxCell>
                <mxCell id="111" value="Outputs" style="text;strokeColor=none;fillColor=none;align=right;verticalAlign=middle;rounded=0;sketch=0;strokeWidth=2;fontSize=16;spacing=0;labelPosition=center;verticalLabelPosition=middle;fontStyle=1" parent="1" vertex="1">
                    <mxGeometry x="160" y="20" width="80" height="40" as="geometry"/>
                </mxCell>
                <mxCell id="112" value="Inputs" style="text;strokeColor=none;fillColor=none;align=left;verticalAlign=middle;rounded=0;sketch=0;strokeWidth=2;fontSize=16;spacing=0;labelPosition=center;verticalLabelPosition=middle;fontStyle=1" parent="1" vertex="1">
                    <mxGeometry x="40" y="20" width="80" height="40" as="geometry"/>
                </mxCell>
                <mxCell id="115" value="" style="group;rotation=-30;" vertex="1" connectable="0" parent="1">
                    <mxGeometry x="40" y="160" width="40" height="80" as="geometry"/>
                </mxCell>
                <mxCell id="104" value="" style="verticalLabelPosition=bottom;verticalAlign=top;html=1;shape=mxgraph.basic.rect;fillColor2=none;strokeWidth=1;size=20;indent=5;rounded=0;fontSize=14;direction=south;fillColor=#000000;rotation=-30;" parent="115" vertex="1">
                    <mxGeometry x="9" y="-2" width="30" height="80" as="geometry"/>
                </mxCell>
                <mxCell id="102" value="" style="strokeWidth=2;outlineConnect=0;dashed=0;align=center;html=1;fontSize=8;shape=mxgraph.eip.channel_adapter;fillColor=#9ddbef;rounded=0;rotation=-30;" parent="115" vertex="1">
                    <mxGeometry x="1" y="3" width="30" height="80" as="geometry"/>
                </mxCell>
                <mxCell id="116" value="" style="group;rotation=30;" vertex="1" connectable="0" parent="1">
                    <mxGeometry x="200" y="160" width="40" height="80" as="geometry"/>
                </mxCell>
                <mxCell id="105" value="" style="verticalLabelPosition=bottom;verticalAlign=top;html=1;shape=mxgraph.basic.rect;fillColor2=none;strokeWidth=1;size=20;indent=5;rounded=0;fontSize=14;direction=south;fillColor=#000000;rotation=30;" parent="116" vertex="1">
                    <mxGeometry y="-2" width="30" height="80" as="geometry"/>
                </mxCell>
                <mxCell id="106" value="" style="strokeWidth=2;outlineConnect=0;dashed=0;align=center;html=1;fontSize=8;shape=mxgraph.eip.channel_adapter;fillColor=#9ddbef;rounded=0;direction=west;rotation=30;" parent="116" vertex="1">
                    <mxGeometry x="10" y="2" width="30" height="80" as="geometry"/>
                </mxCell>
                <mxCell id="119" value="" style="group;rotation=-212;" vertex="1" connectable="0" parent="1">
                    <mxGeometry x="200" y="80" width="40" height="80" as="geometry"/>
                </mxCell>
                <mxCell id="120" value="" style="verticalLabelPosition=bottom;verticalAlign=top;html=1;shape=mxgraph.basic.rect;fillColor2=none;strokeWidth=1;size=20;indent=5;rounded=0;fontSize=14;direction=south;fillColor=#000000;rotation=-212;" vertex="1" parent="119">
                    <mxGeometry x="1" y="2" width="30" height="80" as="geometry"/>
                </mxCell>
                <mxCell id="121" value="" style="strokeWidth=2;outlineConnect=0;dashed=0;align=center;html=1;fontSize=8;shape=mxgraph.eip.channel_adapter;fillColor=#9ddbef;rounded=0;rotation=-212;" vertex="1" parent="119">
                    <mxGeometry x="9" y="-3" width="30" height="80" as="geometry"/>
                </mxCell>
                <mxCell id="122" value="" style="group;rotation=30;" vertex="1" connectable="0" parent="1">
                    <mxGeometry x="40" y="80" width="40" height="80" as="geometry"/>
                </mxCell>
                <mxCell id="123" value="" style="verticalLabelPosition=bottom;verticalAlign=top;html=1;shape=mxgraph.basic.rect;fillColor2=none;strokeWidth=1;size=20;indent=5;rounded=0;fontSize=14;direction=south;fillColor=#000000;rotation=30;" vertex="1" parent="122">
                    <mxGeometry x="8" y="3" width="30" height="80" as="geometry"/>
                </mxCell>
                <mxCell id="124" value="" style="strokeWidth=2;outlineConnect=0;dashed=0;align=center;html=1;fontSize=8;shape=mxgraph.eip.channel_adapter;fillColor=#9ddbef;rounded=0;rotation=30;" vertex="1" parent="122">
                    <mxGeometry x="1" y="-2" width="30" height="80" as="geometry"/>
                </mxCell>
            </root>
        </mxGraphModel>
    </diagram>
</mxfile>
